<?xml version="1.0" encoding="UTF-8"?>
<svg version="1.1" xmlns="http://www.w3.org/2000/svg" width="500" height="500">
<path d="M0 0 C2.72850436 -0.00407311 5.45699125 -0.01257922 8.18548584 -0.02079773 C14.79411561 -0.03788894 21.4026499 -0.03884589 28.011296 -0.03358483 C33.3902334 -0.02952314 38.76914284 -0.03101024 44.14807892 -0.03633308 C44.91723777 -0.03708151 45.68639662 -0.03782993 46.47886331 -0.03860103 C48.04204415 -0.04013271 49.60522498 -0.04167106 51.1684058 -0.043216 C65.78873275 -0.05690643 80.40900602 -0.05152811 95.02933171 -0.04003078 C108.36176727 -0.03010556 121.69406389 -0.04303294 135.02647802 -0.06696498 C148.76352626 -0.09143479 162.50051002 -0.10094435 176.23757958 -0.09431225 C183.93090623 -0.09083701 191.62412622 -0.09293877 199.31743622 -0.11056328 C205.8675447 -0.1253845 212.41747142 -0.12579294 218.96757671 -0.10849237 C222.29989161 -0.10005975 225.63162103 -0.09986231 228.96395874 -0.11314392 C267.54052049 -0.25504676 298.44394348 9.68687279 326.79785156 36.40405273 C327.48492187 37.02666992 328.17199219 37.64928711 328.87988281 38.29077148 C348.0041436 56.28341921 361.86063421 86.46975518 362.89411318 112.8623451 C362.93542081 115.82230343 362.94553968 118.78088412 362.94502258 121.74113464 C362.94869927 122.87639896 362.95237596 124.01166328 362.95616406 125.18132955 C362.96716972 128.98238187 362.97103952 132.78340681 362.97485352 136.58447266 C362.98059198 139.31164278 362.98775546 142.03880885 362.99476624 144.76597595 C363.01448539 152.94861534 363.02459258 161.13125588 363.03349403 169.31391308 C363.03788572 173.17607116 363.04325036 177.03822789 363.04848289 180.9003849 C363.06549314 193.75529667 363.07998341 206.61020761 363.08723164 219.4651289 C363.08914125 222.79755339 363.09106162 226.12997788 363.09301758 229.46240234 C363.09350132 230.29056976 363.09398506 231.11873718 363.09448346 231.97200058 C363.10276922 245.36319654 363.12808239 258.75430276 363.16059826 272.14545961 C363.19377661 285.92289076 363.21169022 299.70027647 363.21487588 313.47774774 C363.21703139 321.20140515 363.22563802 328.92493181 363.25133705 336.64855003 C363.27319215 343.2317965 363.2810227 349.81488047 363.27137027 356.39815911 C363.26686736 359.74865313 363.27071749 363.09854483 363.28813171 366.44903564 C363.47416481 404.39365215 353.38991772 436.53870164 326.79785156 464.40405273 C326.21132813 465.0653418 325.62480469 465.72663086 325.02050781 466.40795898 C314.63722699 477.65461983 300.59314268 485.17392126 286.79785156 491.40405273 C285.25291016 492.1272168 285.25291016 492.1272168 283.67675781 492.86499023 C264.85563321 500.94167569 244.24692847 500.99029567 224.12988281 500.92163086 C221.42343304 500.92706477 218.71702645 500.93405273 216.0105896 500.94287109 C209.47827881 500.96048523 202.94615376 500.95689382 196.41383624 500.94522053 C191.09607617 500.93611812 185.77836747 500.93499128 180.46060181 500.9393158 C179.69838406 500.93992873 178.93616632 500.94054166 178.15085107 500.94117317 C176.60152489 500.94245231 175.05219873 500.94374916 173.50287259 500.94506353 C159.03790436 500.9564192 144.57303819 500.9434349 130.10808671 500.92186207 C117.74648595 500.90399566 105.38503555 500.90710119 93.0234375 500.92553711 C78.60367079 500.94703306 64.18399311 500.95532104 49.76421261 500.94308805 C48.22117553 500.94181411 46.67813843 500.94055662 45.13510132 500.9393158 C44.37626406 500.93869869 43.6174268 500.93808159 42.83559448 500.93744579 C37.53568877 500.93401893 32.23584042 500.93976306 26.9359436 500.94923401 C20.46068723 500.96055306 13.9856243 500.95720925 7.51038957 500.93611103 C4.21835353 500.92573158 0.9266975 500.92347103 -2.365345 500.93470764 C-23.65606807 501.00061728 -43.71306107 499.58292192 -63.20214844 490.40405273 C-64.50549851 489.82324426 -65.80888496 489.24251739 -67.11230469 488.66186523 C-88.41854701 478.87825439 -105.54578571 462.99100757 -118.20214844 443.40405273 C-118.84925781 442.40631836 -119.49636719 441.40858398 -120.16308594 440.38061523 C-131.43868498 422.01468316 -137.35306885 400.53139952 -137.34931946 379.06697083 C-137.35299615 377.93170651 -137.35667283 376.79644219 -137.36046094 375.62677592 C-137.3714666 371.8257236 -137.37533639 368.02469866 -137.37915039 364.22363281 C-137.38488886 361.49646269 -137.39205234 358.76929662 -137.39906311 356.04212952 C-137.41878227 347.85949013 -137.42888945 339.67684959 -137.4377909 331.49419239 C-137.4421826 327.63203431 -137.44754723 323.76987758 -137.45277977 319.90772057 C-137.46979001 307.0528088 -137.48428029 294.19789786 -137.49152851 281.34297657 C-137.49343813 278.01055208 -137.4953585 274.67812759 -137.49731445 271.34570312 C-137.49779819 270.51753571 -137.49828193 269.68936829 -137.49878033 268.83610489 C-137.50706609 255.44490893 -137.53237926 242.05380271 -137.56489513 228.66264585 C-137.59807349 214.88521471 -137.6159871 201.107829 -137.61917275 187.33035773 C-137.62132827 179.60670032 -137.6299349 171.88317366 -137.65563393 164.15955544 C-137.67748902 157.57630896 -137.68531957 150.993225 -137.67566714 144.40994636 C-137.67116424 141.05945233 -137.67501437 137.70956064 -137.69242859 134.35906982 C-137.78274728 115.93703433 -136.83042389 97.99616221 -130.01464844 80.65405273 C-129.71985596 79.88367676 -129.42506348 79.11330078 -129.12133789 78.31958008 C-116.94483696 47.62129982 -92.51797502 22.53150761 -62.20214844 9.40405273 C-55.99456189 6.97398607 -49.67097325 5.00212274 -43.20214844 3.40405273 C-42.19770061 3.15063582 -41.19325279 2.89721891 -40.15836716 2.6361227 C-26.84564616 -0.29501918 -13.57498638 -0.02575337 0 0 Z " fill="#FDFDFD" transform="translate(137.2021484375,-0.404052734375)"/>
<path d="M0 0 C2.9486566 0.00316712 5.89726848 -0.00307765 8.84591854 -0.00903875 C15.79084269 -0.02286609 22.73564314 -0.02169435 29.68056822 -0.01013684 C36.81353166 0.00147171 43.94612468 -0.01299088 51.07903969 -0.03953332 C57.26574128 -0.06168059 63.45232627 -0.06833426 69.63906467 -0.06245691 C73.30869772 -0.05910157 76.97809033 -0.06141374 80.64768934 -0.07870793 C84.70967343 -0.09703981 88.77092302 -0.08300118 92.83291197 -0.06580091 C94.03276731 -0.07546887 95.23262266 -0.08513684 96.46883726 -0.09509778 C102.77528672 -0.03903981 106.7350375 0.12632677 111.49062681 4.43590808 C115.64688197 9.15381934 116.85135495 11.93014155 116.77187681 18.11950183 C116.18888532 22.92108456 113.35800976 25.67178501 109.86562681 28.74840808 C106.38381556 31.2223266 104.6017501 31.56342917 100.36915159 31.58066821 C98.74059736 31.59101596 98.74059736 31.59101596 97.07914305 31.60157275 C95.8819615 31.60418612 94.68477995 31.6067995 93.45132017 31.60949206 C91.52072722 31.61975953 89.59013428 31.63002897 87.65954173 31.6403712 C85.57711133 31.65061745 83.49468341 31.65846309 81.41224051 31.66570354 C77.0491336 31.68120201 72.68609833 31.70516441 68.32303953 31.73060107 C55.91223297 31.80163831 43.50138165 31.86097847 31.09048033 31.91271472 C24.24123434 31.94134239 17.39205601 31.97691122 10.54288155 32.01936847 C6.92985449 32.04142728 3.31688839 32.06007701 -0.29619455 32.0698173 C-58.75661959 31.33851612 -58.75661959 31.33851612 -108.50937319 58.43590808 C-130.88884307 82.55003969 -132.66692655 117.54183271 -132.65463686 148.83751941 C-132.65799547 150.09663135 -132.66135408 151.35574328 -132.66481447 152.65301013 C-132.67353911 156.0649129 -132.6759878 159.47679049 -132.67663026 162.88870335 C-132.67734801 165.03611589 -132.67949593 167.18352232 -132.68212748 169.33093333 C-132.69134675 176.8681262 -132.69546716 184.40530155 -132.69467592 191.94249988 C-132.69407787 198.8928308 -132.70458484 205.84308344 -132.72041959 212.79339463 C-132.73364371 218.81949912 -132.73885361 224.84557853 -132.73822051 230.87169737 C-132.7379696 234.44433058 -132.74058815 238.01689424 -132.75139856 241.58951259 C-133.4511366 299.52044629 -133.4511366 299.52044629 -106.94687319 348.98668933 C-83.98963578 372.05429807 -50.45461068 374.4647023 -19.45570803 374.58254504 C-18.27982622 374.58209186 -17.10394442 374.58163867 -15.89242983 374.58117175 C-14.61059816 374.58453036 -13.3287665 374.58788898 -12.00809145 374.59134936 C-8.53434156 374.60007543 -5.0606164 374.6025227 -1.5868566 374.60316515 C0.59806248 374.60388261 2.78297555 374.60602994 4.96789312 374.60866237 C12.6324574 374.61788077 20.29700444 374.622002 27.96157408 374.62121081 C35.03691236 374.62061218 42.11217388 374.63113094 49.18749279 374.64695448 C55.31717445 374.6601605 61.44683145 374.66538926 67.57652718 374.6647554 C71.21281225 374.66450405 74.84902906 374.66714851 78.48529959 374.67793345 C136.10297749 374.96666266 136.10297749 374.96666266 185.17812681 348.06090808 C199.11751543 333.59674248 204.39575335 315.31458034 207.24062681 295.93590808 C207.35615904 295.15562243 207.47169127 294.37533679 207.59072447 293.57140613 C209.87903728 276.38475323 209.64704747 258.97032442 209.68985701 241.67125392 C209.70072226 237.40422307 209.72100203 233.13726632 209.74297667 228.87028003 C209.80432106 216.75262283 209.85905502 204.63497759 209.891994 192.51720691 C209.91035678 185.79031012 209.93928696 179.06354535 209.97999871 172.33674568 C210.00098884 168.79156836 210.01651511 165.24655646 210.01880598 161.70131373 C210.02135747 157.76024834 210.04683848 153.81951066 210.07412291 149.87853503 C210.07111677 148.71638476 210.06811064 147.5542345 210.06501341 146.35686755 C210.12753142 140.28456101 210.47343254 135.76187226 213.49062681 130.43590808 C217.77444823 126.26192824 220.56046481 125.59156631 226.36562681 125.12340808 C230.72518132 125.18823417 233.12906371 126.60913911 236.49062681 129.43590808 C240.16034594 133.60153519 241.61318679 135.89341889 241.63106871 141.40070605 C241.63677885 142.45223865 241.64248899 143.50377124 241.64837217 144.58716846 C241.64949003 145.74679599 241.65060789 146.90642352 241.65175962 148.10119128 C241.65672453 149.31976825 241.66168943 150.53834521 241.66680479 151.79384875 C241.67894736 155.15356157 241.68638652 158.51321173 241.69081545 161.87293911 C241.69375487 163.98888879 241.6978624 166.10483315 241.70231962 168.22078013 C241.71603513 174.88704005 241.72566858 181.55328763 241.72952151 188.21956068 C241.73350758 195.07486097 241.7455569 201.93002041 241.77187681 208.78527331 C241.99152074 267.36446501 241.99152074 267.36446501 240.22500181 289.04137683 C240.17079321 289.73525311 240.11658461 290.4291294 240.06073332 291.14403224 C239.18658971 301.8080374 237.00124963 312.06251285 234.49062681 322.43590808 C234.3050059 323.20416604 234.11938499 323.972424 233.92813921 324.76396251 C230.12277959 340.42494191 222.87172047 354.8703889 211.46328306 366.42809558 C209.41063769 368.44182546 209.41063769 368.44182546 207.54531431 370.92418933 C190.01651774 392.35197677 158.73080622 401.45947072 132.19350767 404.27648425 C103.50041625 407.02795867 74.78808286 406.85813137 45.99074888 406.75847888 C40.74973457 406.74507454 35.50880547 406.75032127 30.26778173 406.75532222 C6.96682716 406.77234079 -16.32929022 406.74288525 -39.60702944 405.60387683 C-40.74067336 405.55221079 -40.74067336 405.55221079 -41.89721918 405.49950099 C-56.84959669 404.78957036 -71.72125165 402.87738324 -85.94687319 398.06090808 C-86.88007387 397.75201648 -87.81327456 397.44312488 -88.77475405 397.12487292 C-115.76045837 388.04066996 -137.22350402 369.35629055 -150.43515444 344.05700183 C-157.51815687 329.23265157 -160.81441802 312.11840668 -162.57187319 295.87340808 C-162.64986147 295.21534167 -162.72784975 294.55727527 -162.80820131 293.87926745 C-164.70392233 276.75510987 -164.6720771 259.54636745 -164.67734194 242.34215808 C-164.68056882 239.82291148 -164.68393386 237.30366506 -164.687428 234.78441882 C-164.69338606 229.51297208 -164.69531532 224.24153706 -164.69467592 218.97008777 C-164.69414756 213.65690456 -164.70143951 208.34380539 -164.71518373 203.03063464 C-164.7797955 177.60361257 -164.83709861 152.18576487 -163.68515444 126.77965808 C-163.65047752 125.9539783 -163.61580061 125.12829852 -163.58007288 124.27759814 C-162.92212696 109.21225962 -161.14276498 94.23892197 -156.57187319 79.81090808 C-156.21319155 78.60241199 -156.21319155 78.60241199 -155.84726381 77.36950183 C-154.42061765 72.72443226 -152.67483891 68.46488466 -150.39267397 64.17370105 C-149.35956844 62.22698128 -149.35956844 62.22698128 -148.32187319 59.18590808 C-142.32786347 45.00653026 -128.46984665 32.51290077 -116.50937319 23.43590808 C-115.16939272 22.4072362 -115.16939272 22.4072362 -113.80234194 21.35778308 C-109.26724322 18.01255284 -106.20942824 16.09392309 -100.50937319 15.43590808 C-100.50937319 14.77590808 -100.50937319 14.11590808 -100.50937319 13.43590808 C-68.5625192 0.94940382 -33.89738763 -0.05657883 0 0 Z " fill="#010101" transform="translate(211.5093731880188,46.56409192085266)"/>
<path d="M0 0 C4.64389522 3.2275501 7.28888165 6.30190487 8.73828125 11.90625 C8.44011662 18.5510617 6.42800602 23.22704253 3.30078125 29.03125 C0.7184631 33.91848088 -1.70240473 38.57220313 -3.26171875 43.90625 C-3.92171875 43.90625 -4.58171875 43.90625 -5.26171875 43.90625 C-5.49632812 45.040625 -5.7309375 46.175 -5.97265625 47.34375 C-7.21375161 52.29074307 -9.43254017 56.4631815 -11.88671875 60.90625 C-12.7893065 62.57598809 -13.69032266 64.24657659 -14.58984375 65.91796875 C-15.03908203 66.74989746 -15.48832031 67.58182617 -15.95117188 68.43896484 C-18.26313332 72.79155097 -20.42721136 77.21771334 -22.57275391 81.65429688 C-29.42705251 95.62323098 -39.28157036 105.69298772 -53.94921875 111.21875 C-55.71436986 111.79883492 -57.48485719 112.36309263 -59.26171875 112.90625 C-59.92558594 113.13183594 -60.58945312 113.35742188 -61.2734375 113.58984375 C-73.78696674 117.39374677 -87.66898047 114.65717766 -99.32421875 109.40625 C-111.86434821 102.71264447 -120.2345053 92.46501947 -126.13671875 79.71875 C-129.6202863 72.56970536 -133.92336516 69.69465371 -140.76171875 66.03125 C-148.01432908 63.70005382 -154.47555858 64.64109574 -161.26171875 67.90625 C-167.35160897 72.0054411 -170.40123159 76.62427726 -172.99609375 83.41015625 C-175.23014447 89.02085992 -177.969621 94.27837209 -180.82421875 99.59375 C-185.61405388 108.6222267 -190.13805749 117.74152864 -194.43188477 127.01635742 C-203.08787336 145.50785776 -203.08787336 145.50785776 -210.18359375 148.3515625 C-215.12445449 149.67036367 -218.80977473 149.63222201 -223.51171875 147.28125 C-228.2093026 143.22424576 -230.90427675 138.99501515 -231.62109375 132.80078125 C-231.14115507 127.59970659 -229.07437354 124.07479666 -226.51171875 119.59375 C-225.6160158 117.99632629 -224.72538039 116.39605052 -223.83984375 114.79296875 C-223.4418457 114.09389404 -223.04384766 113.39481934 -222.63378906 112.67456055 C-221.40945187 110.20431865 -220.38832577 107.75350627 -219.38305664 105.18896484 C-217.40334397 100.16383698 -215.14360607 95.3315443 -212.7421875 90.49609375 C-212.32052811 89.64374649 -211.89886871 88.79139923 -211.46443176 87.91322327 C-210.5782899 86.12654711 -209.68997457 84.3409474 -208.79956055 82.55639648 C-207.45320056 79.8517489 -206.1219832 77.1399827 -204.79101562 74.42773438 C-196.39821581 57.48085296 -196.39821581 57.48085296 -190.26171875 50.90625 C-189.45347656 50.03613281 -188.64523438 49.16601562 -187.8125 48.26953125 C-175.83110481 37.29181315 -161.70954406 32.14125224 -145.44140625 32.62890625 C-129.00769303 34.06231367 -115.18195029 41.86474468 -104.26171875 53.90625 C-100.37662039 59.02686678 -97.47905909 64.38508768 -94.82421875 70.21875 C-91.91292902 76.26231844 -87.51988149 79.06831204 -81.82421875 82.28125 C-73.89784904 84.2145109 -67.43608111 82.56868673 -60.26171875 78.90625 C-56.81492721 76.60838898 -54.78370313 74.78039207 -53.26171875 70.90625 C-52.60171875 70.90625 -51.94171875 70.90625 -51.26171875 70.90625 C-51.06223633 69.86041748 -50.86275391 68.81458496 -50.65722656 67.73706055 C-49.03827124 61.30378306 -45.88584807 55.517287 -42.93359375 49.61328125 C-42.30035071 48.33646183 -41.66740093 47.05949692 -41.034729 45.78239441 C-39.71212264 43.11783528 -38.38323381 40.45652237 -37.05029297 37.79711914 C-35.34967779 34.40189586 -33.66942282 30.99703691 -31.99427414 27.58919239 C-30.69477185 24.95309753 -29.38240764 22.32356408 -28.06638336 19.69568443 C-27.44161245 18.44328478 -26.82128061 17.18865974 -26.20565033 15.93174171 C-20.19329382 3.68303607 -20.19329382 3.68303607 -14.26171875 -0.09375 C-9.40922794 -1.71124694 -4.72713331 -2.28600575 0 0 Z " fill="#030303" transform="translate(361.26171875,176.09375)"/>
<path d="M0 0 C11.06576016 8.61571649 19.65609028 18.92908051 22.62109375 32.93359375 C23.6513632 41.27134133 23.90535856 50.02927809 21 58 C20.68160156 58.92296875 20.36320312 59.8459375 20.03515625 60.796875 C14.22986004 76.19947908 3.70759322 85.51754512 -10.73046875 92.6171875 C-21.5731547 97.20298299 -37.40676627 96.90098697 -48.375 92.875 C-53.45374199 90.53096524 -57.76582194 87.62929548 -62 84 C-63.010625 83.2575 -64.02125 82.515 -65.0625 81.75 C-73.01894775 74.9394537 -80.32354246 62.35261776 -81.17700195 51.81445312 C-81.71773442 29.46130539 -81.71773442 29.46130539 -77 21 C-76.49082031 20.071875 -75.98164063 19.14375 -75.45703125 18.1875 C-67.14372684 4.1861452 -55.51561127 -3.69439388 -40.1484375 -8.58984375 C-26.06998315 -11.27754867 -11.76673952 -7.91925724 0 0 Z " fill="#030303" transform="translate(446,40)"/>
<path d="M0 0 C4.78532528 -0.4155838 8.05061193 -0.3970914 12.23828125 2.12109375 C17.09349638 6.26561797 20.60488774 9.79145225 21.30859375 16.359375 C21.73042366 21.98377376 21.58470487 27.11442328 19.30859375 32.359375 C17.18795763 34.68223673 14.8848242 36.56272531 12.30859375 38.359375 C11.52871094 38.90335938 10.74882812 39.44734375 9.9453125 40.0078125 C4.27600775 42.91385612 -2.49670353 41.899056 -8.50390625 40.421875 C-13.41735292 37.24258598 -17.0708419 32.6005037 -19.69140625 27.359375 C-20.62306972 15.44630117 -20.62306972 15.44630117 -18.12890625 9.859375 C-11.98268204 3.5555553 -8.78606007 1.17317493 0 0 Z " fill="#F9F9F9" transform="translate(415.69140625,62.640625)"/>
<path d="M0 0 C0.66 0.33 1.32 0.66 2 1 C-1.63 4.63 -5.26 8.26 -9 12 C-9 8.47601214 -8.44884893 7.98495633 -6.1875 5.4375 C-5.40439453 4.53837891 -5.40439453 4.53837891 -4.60546875 3.62109375 C-3 2 -3 2 0 0 Z " fill="#CCCCCC" transform="translate(200,243)"/>
<path d="M0 0 C0.66 0.33 1.32 0.66 2 1 C-1.96 4.96 -5.92 8.92 -10 13 C-10.66 12.67 -11.32 12.34 -12 12 C-8.39424999 7.41086363 -4.52615993 3.67832017 0 0 Z " fill="#CFCFCF" transform="translate(111,97)"/>
<path d="M0 0 C-1.55603771 3.81936528 -3.95604931 6.26044438 -7 9 C-7.66 9 -8.32 9 -9 9 C-7.45665977 5.21180126 -4.44676575 0 0 0 Z " fill="#CCCCCC" transform="translate(407,65)"/>
<path d="M0 0 C0.66 0.33 1.32 0.66 2 1 C-0.64 3.64 -3.28 6.28 -6 9 C-6 6 -6 6 -3.5625 3.375 C-2.716875 2.59125 -1.87125 1.8075 -1 1 C-0.67 0.67 -0.34 0.34 0 0 Z " fill="#333333" transform="translate(430,173)"/>
</svg>
